<svg width="32" height="32" viewBox="0 0 32 32" fill="none" xmlns="http://www.w3.org/2000/svg">
<rect width="24" height="24" transform="translate(4 4)" fill="white" fill-opacity="0.01"/>
<g filter="url(#filter0_d_3521_781)">
<rect x="4" y="4" width="24" height="24" rx="4" fill="white" fill-opacity="0.01" shape-rendering="crispEdges"/>
<g clip-path="url(#clip0_3521_781)">
<rect width="16" height="16" transform="translate(8 8)" fill="white" fill-opacity="0.01"/>
<g clip-path="url(#clip1_3521_781)">
<path d="M8.29279 8.2921C8.48031 8.10463 8.73462 7.99932 8.99979 7.99932C9.26495 7.99932 9.51926 8.10463 9.70679 8.2921L15.9998 14.5851L22.2928 8.2921C22.385 8.19659 22.4954 8.12041 22.6174 8.068C22.7394 8.01559 22.8706 7.98801 23.0034 7.98685C23.1362 7.9857 23.2678 8.011 23.3907 8.06128C23.5136 8.11156 23.6253 8.18582 23.7192 8.27971C23.8131 8.3736 23.8873 8.48525 23.9376 8.60815C23.9879 8.73105 24.0132 8.86273 24.012 8.99551C24.0109 9.12829 23.9833 9.25951 23.9309 9.38151C23.8785 9.50351 23.8023 9.61386 23.7068 9.7061L17.4138 15.9991L23.7068 22.2921C23.8889 22.4807 23.9897 22.7333 23.9875 22.9955C23.9852 23.2577 23.88 23.5085 23.6946 23.6939C23.5092 23.8793 23.2584 23.9845 22.9962 23.9868C22.734 23.9891 22.4814 23.8883 22.2928 23.7061L15.9998 17.4131L9.70679 23.7061C9.51818 23.8883 9.26558 23.9891 9.00339 23.9868C8.74119 23.9845 8.49038 23.8793 8.30497 23.6939C8.11956 23.5085 8.01439 23.2577 8.01211 22.9955C8.00983 22.7333 8.11063 22.4807 8.29279 22.2921L14.5858 15.9991L8.29279 9.7061C8.10532 9.51858 8 9.26427 8 8.9991C8 8.73394 8.10532 8.47963 8.29279 8.2921Z" fill="white"/>
</g>
</g>
</g>
<defs>
<filter id="filter0_d_3521_781" x="0" y="0" width="32" height="32" filterUnits="userSpaceOnUse" color-interpolation-filters="sRGB">
<feFlood flood-opacity="0" result="BackgroundImageFix"/>
<feColorMatrix in="SourceAlpha" type="matrix" values="0 0 0 0 0 0 0 0 0 0 0 0 0 0 0 0 0 0 127 0" result="hardAlpha"/>
<feMorphology radius="4" operator="dilate" in="SourceAlpha" result="effect1_dropShadow_3521_781"/>
<feOffset/>
<feComposite in2="hardAlpha" operator="out"/>
<feColorMatrix type="matrix" values="0 0 0 0 0.972549 0 0 0 0 0.976471 0 0 0 0 0.980392 0 0 0 0.5 0"/>
<feBlend mode="normal" in2="BackgroundImageFix" result="effect1_dropShadow_3521_781"/>
<feBlend mode="normal" in="SourceGraphic" in2="effect1_dropShadow_3521_781" result="shape"/>
</filter>
<clipPath id="clip0_3521_781">
<rect width="16" height="16" fill="white" transform="translate(8 8)"/>
</clipPath>
<clipPath id="clip1_3521_781">
<rect width="16" height="16" fill="white" transform="translate(8 8)"/>
</clipPath>
</defs>
</svg>
